<svg width="1181" height="1135" xmlns="http://www.w3.org/2000/svg" xmlns:xlink="http://www.w3.org/1999/xlink" xml:space="preserve" overflow="hidden"><defs><filter id="fx0" x="-10%" y="-10%" width="120%" height="120%" filterUnits="userSpaceOnUse" primitiveUnits="userSpaceOnUse"><feComponentTransfer color-interpolation-filters="sRGB"><feFuncR type="discrete" tableValues="0 0"/><feFuncG type="discrete" tableValues="0 0"/><feFuncB type="discrete" tableValues="0 0"/><feFuncA type="linear" slope="0.4" intercept="0"/></feComponentTransfer><feGaussianBlur stdDeviation="4.58333 4.58333"/></filter><filter id="fx1" x="-10%" y="-10%" width="120%" height="120%" filterUnits="userSpaceOnUse" primitiveUnits="userSpaceOnUse"><feComponentTransfer color-interpolation-filters="sRGB"><feFuncR type="discrete" tableValues="0 0"/><feFuncG type="discrete" tableValues="0 0"/><feFuncB type="discrete" tableValues="0 0"/><feFuncA type="linear" slope="0.4" intercept="0"/></feComponentTransfer><feGaussianBlur stdDeviation="4.58333 4.58333"/></filter><filter id="fx2" x="-10%" y="-10%" width="120%" height="120%" filterUnits="userSpaceOnUse" primitiveUnits="userSpaceOnUse"><feComponentTransfer color-interpolation-filters="sRGB"><feFuncR type="discrete" tableValues="0 0"/><feFuncG type="discrete" tableValues="0 0"/><feFuncB type="discrete" tableValues="0 0"/><feFuncA type="linear" slope="0.4" intercept="0"/></feComponentTransfer><feGaussianBlur stdDeviation="4.58333 4.58333"/></filter><filter id="fx3" x="-10%" y="-10%" width="120%" height="120%" filterUnits="userSpaceOnUse" primitiveUnits="userSpaceOnUse"><feComponentTransfer color-interpolation-filters="sRGB"><feFuncR type="discrete" tableValues="0 0"/><feFuncG type="discrete" tableValues="0 0"/><feFuncB type="discrete" tableValues="0 0"/><feFuncA type="linear" slope="0.4" intercept="0"/></feComponentTransfer><feGaussianBlur stdDeviation="4.58333 4.58333"/></filter></defs><g transform="translate(-1610 -616)"><path d="M1613.5 1183.5C1613.5 872.011 1876.31 619.5 2200.5 619.5 2524.69 619.5 2787.5 872.011 2787.5 1183.5 2787.5 1494.99 2524.69 1747.5 2200.5 1747.5 1876.31 1747.5 1613.5 1494.99 1613.5 1183.5Z" stroke="#000000" stroke-width="6.875" stroke-miterlimit="8" fill="#FFFFFF" fill-rule="evenodd" fill-opacity="0.341176"/><g filter="url(#fx0)" transform="translate(1829 1306)"><g><path d="M153.569 15.473 172.65 34.0512 49.7238 160.298 116.398 225.219 100.401 241.649 14.6457 158.15Z" fill-rule="evenodd"/></g></g><path d="M1977.71 1316.61 1996.79 1335.19 1873.86 1461.44 1940.54 1526.36 1924.54 1542.79 1838.78 1459.29Z" fill-rule="evenodd"/><text fill="#000000" fill-opacity="0" font-family="Arial,Arial_MSFontService,sans-serif" font-size="226.176" x="1838.78" y="1514.52">L</text><g filter="url(#fx1)" transform="translate(2012 1394)"><g><path d="M84.3851 14.7312 109.323 24.0753 39.45 210.554 14.5123 201.21Z" fill-rule="evenodd"/></g></g><path d="M2091.52 1403.87 2116.46 1413.21 2046.59 1599.69 2021.65 1590.35Z" fill-rule="evenodd"/><text fill="#000000" fill-opacity="0" font-family="Arial,Arial_MSFontService,sans-serif" font-size="195.823" x="2021.65" y="1575.21">I</text><g filter="url(#fx2)" transform="translate(2143 1412)"><g><path d="M77.8475 15.4741C90.6427 14.6404 102.49 15.9442 113.389 19.3854 124.288 22.8266 133.181 28.4742 140.068 36.3282 146.955 44.1821 150.8 54.2607 151.601 66.5637L125.027 68.2952C124.394 57.0684 119.707 48.8487 110.966 43.636 102.225 38.4233 91.7026 36.2177 79.3996 37.0193 66.7029 37.8466 57.001 41.0239 50.294 46.5513 43.5869 52.0787 40.5508 59.7144 41.1857 69.4584 41.5641 75.2654 43.4055 80.0134 46.71 83.7023 50.0144 87.3912 55.4848 90.5684 63.121 93.2338 70.7572 95.8992 81.3312 98.5214 94.8429 101.101 110.466 104.234 123.23 107.85 133.134 111.949 143.039 116.048 150.495 121.641 155.503 128.728 160.512 135.815 163.407 145.362 164.19 157.37 165.023 170.165 162.516 180.979 156.666 189.811 150.817 198.643 142.519 205.534 131.771 210.485 121.023 215.435 108.71 218.363 94.8326 219.267 80.6595 220.19 67.7233 218.859 56.0239 215.272 44.3246 211.685 34.8024 205.485 27.4576 196.673 20.1127 187.86 15.9593 176.072 14.9973 161.309L41.7195 159.567C42.4057 170.099 45.2327 178.217 50.2006 183.923 55.1685 189.629 61.522 193.465 69.261 195.432 76.9999 197.398 85.3969 198.087 94.452 197.497 102.818 196.952 110.389 195.198 117.164 192.236 123.939 189.274 129.229 185.124 133.032 179.786 136.836 174.448 138.478 167.793 137.959 159.82 137.51 152.931 135.517 147.377 131.98 143.16 128.444 138.942 122.803 135.43 115.059 132.624 107.315 129.817 96.9885 127.203 84.0801 124.783 68.8632 121.82 56.2796 118.316 46.3294 114.269 36.3792 110.223 28.8389 104.858 23.7084 98.174 18.578 91.4905 15.6632 82.7847 14.9642 72.0565 14.2267 60.7377 16.2637 51.042 21.0752 42.9694 25.8867 34.8968 33.1313 28.5189 42.8093 23.8358 52.4872 19.1528 64.1666 16.3655 77.8475 15.4741Z" fill-rule="evenodd"/></g></g><path d="M2215.99 1422.61C2228.78 1421.78 2240.63 1423.08 2251.53 1426.52 2262.43 1429.97 2271.32 1435.61 2278.21 1443.47 2285.09 1451.32 2288.94 1461.4 2289.74 1473.7L2263.17 1475.43C2262.53 1464.21 2257.85 1455.99 2249.1 1450.77 2240.36 1445.56 2229.84 1443.36 2217.54 1444.16 2204.84 1444.99 2195.14 1448.16 2188.43 1453.69 2181.73 1459.22 2178.69 1466.85 2179.32 1476.6 2179.7 1482.4 2181.54 1487.15 2184.85 1490.84 2188.15 1494.53 2193.62 1497.71 2201.26 1500.37 2208.9 1503.04 2219.47 1505.66 2232.98 1508.24 2248.6 1511.37 2261.37 1514.99 2271.27 1519.09 2281.18 1523.19 2288.63 1528.78 2293.64 1535.87 2298.65 1542.95 2301.55 1552.5 2302.33 1564.51 2303.16 1577.3 2300.65 1588.12 2294.81 1596.95 2288.96 1605.78 2280.66 1612.67 2269.91 1617.62 2259.16 1622.57 2246.85 1625.5 2232.97 1626.41 2218.8 1627.33 2205.86 1626 2194.16 1622.41 2182.46 1618.82 2172.94 1612.62 2165.6 1603.81 2158.25 1595 2154.1 1583.21 2153.14 1568.45L2179.86 1566.71C2180.54 1577.24 2183.37 1585.36 2188.34 1591.06 2193.31 1596.77 2199.66 1600.6 2207.4 1602.57 2215.14 1604.54 2223.54 1605.23 2232.59 1604.64 2240.96 1604.09 2248.53 1602.34 2255.3 1599.38 2262.08 1596.41 2267.37 1592.26 2271.17 1586.92 2274.97 1581.59 2276.62 1574.93 2276.1 1566.96 2275.65 1560.07 2273.66 1554.52 2270.12 1550.3 2266.58 1546.08 2260.94 1542.57 2253.2 1539.76 2245.45 1536.96 2235.13 1534.34 2222.22 1531.92 2207 1528.96 2194.42 1525.45 2184.47 1521.41 2174.52 1517.36 2166.98 1512 2161.85 1505.31 2156.72 1498.63 2153.8 1489.92 2153.1 1479.2 2152.37 1467.88 2154.4 1458.18 2159.21 1450.11 2164.03 1442.04 2171.27 1435.66 2180.95 1430.97 2190.63 1426.29 2202.31 1423.5 2215.99 1422.61Z" fill-rule="evenodd"/><text fill="#000000" fill-opacity="0" font-family="Arial,Arial_MSFontService,sans-serif" font-size="204.32" x="2152.96" y="1601.15">S</text><g filter="url(#fx3)" transform="translate(2288 1315)"><g><path d="M14.8029 110.291 36.3489 94.1415 109.467 191.691C121.889 208.265 134.359 217.377 146.875 219.028 159.391 220.679 172.476 216.387 186.13 206.153 199.862 195.86 207.672 184.49 209.56 172.043 211.448 159.596 206.18 145.086 193.757 128.512L120.639 30.9622 142.185 14.8124 217.255 114.966C226.129 126.805 231.87 138.988 234.481 151.515 237.091 164.042 235.687 176.435 230.268 188.693 224.849 200.952 214.564 212.76 199.41 224.118 184.494 235.299 170.372 241.785 157.047 243.576 143.721 245.367 131.412 243.253 120.12 237.233 108.829 231.213 98.7462 222.284 89.8726 210.445Z" fill-rule="evenodd"/></g></g><path d="M2297.94 1420.43 2319.49 1404.28 2392.61 1501.83C2405.03 1518.4 2417.5 1527.52 2430.01 1529.17 2442.53 1530.82 2455.61 1526.53 2469.27 1516.29 2483 1506 2490.81 1494.63 2492.7 1482.18 2494.59 1469.73 2489.32 1455.22 2476.9 1438.65L2403.78 1341.1 2425.32 1324.95 2500.39 1425.1C2509.27 1436.94 2515.01 1449.13 2517.62 1461.65 2520.23 1474.18 2518.83 1486.57 2513.41 1498.83 2507.99 1511.09 2497.7 1522.9 2482.55 1534.26 2467.63 1545.44 2453.51 1551.92 2440.19 1553.71 2426.86 1555.51 2414.55 1553.39 2403.26 1547.37 2391.97 1541.35 2381.88 1532.42 2373.01 1520.58Z" fill-rule="evenodd"/><text fill="#000000" fill-opacity="0" font-family="Arial,Arial_MSFontService,sans-serif" font-size="229.38" x="2297.94" y="1525.66">U</text><g><g><g><path d="M2559.59 1022.2 2559.39 1020.1C2557.57 1001.15 2546.03 984.506 2528.92 976.162 2447.04 935.781 2327.86 912.626 2201.95 912.626L2198.03 912.626C2072.12 912.626 1952.94 935.781 1871.06 976.162 1853.95 984.505 1842.41 1001.15 1840.6 1020.11L1840.4 1022.2C1836.98 1057.59 1845.67 1093.09 1865.03 1122.9L1867.28 1126.36C1873.39 1135.8 1881.31 1143.95 1890.58 1150.32 1944.19 1187.04 2021.19 1213.18 2107.41 1223.95 2119.24 1225.34 2131.06 1221.19 2139.42 1212.71L2178.17 1173.54C2190.1 1161.47 2209.56 1161.36 2221.63 1173.29 2221.71 1173.37 2221.8 1173.45 2221.88 1173.54L2260.63 1212.71C2267.88 1220.03 2277.74 1224.18 2288.05 1224.24 2289.57 1224.24 2291.09 1224.14 2292.61 1223.95 2378.83 1213.18 2455.84 1187.07 2509.42 1150.32 2518.68 1143.95 2526.59 1135.8 2532.7 1126.36L2534.94 1122.91C2554.31 1093.09 2563 1057.59 2559.59 1022.2ZM2201.95 928.292C2306.53 928.292 2406.05 944.5 2482.57 973.318 2486.92 1000.78 2487.07 1028.74 2483.03 1056.25 2404.83 1023.35 2305.57 1005.38 2200 1005.38 2094.43 1005.38 1995.17 1023.35 1916.97 1056.25 1912.93 1028.74 1913.08 1000.78 1917.43 973.318 1993.98 944.5 2093.47 928.292 2198.05 928.292ZM1856 1023.72 1856.2 1021.63C1857.43 1008.31 1865.42 996.569 1877.35 990.544 1884.76 986.87 1892.6 983.392 1900.64 980.008 1897.1 1007.52 1897.61 1035.41 1902.16 1062.78 1899.08 1064.19 1895.96 1065.59 1892.96 1067.06 1882.51 1072.1 1872.91 1078.74 1864.5 1086.73 1864.48 1086.77 1864.43 1086.78 1864.39 1086.75 1864.38 1086.75 1864.37 1086.74 1864.36 1086.73 1856.83 1066.63 1853.97 1045.08 1856 1023.72ZM1880.4 1117.81 1878.15 1114.36C1875.64 1110.47 1873.33 1106.45 1871.22 1102.33 1879.32 1093.53 1889.02 1086.35 1899.8 1081.18 1901.62 1080.28 1903.52 1079.45 1905.37 1078.58 1912.61 1108.84 1925.64 1137.4 1943.76 1162.7 1928.33 1155.44 1913.5 1146.99 1899.39 1137.43 1891.82 1132.21 1885.37 1125.54 1880.4 1117.81ZM2290.68 1208.37C2283.67 1209.16 2276.69 1206.69 2271.75 1201.66L2232.99 1162.45C2214.98 1144.23 2185.61 1144.06 2167.39 1162.07 2167.26 1162.2 2167.13 1162.33 2167.01 1162.45L2128.25 1201.66C2123.31 1206.69 2116.33 1209.17 2109.32 1208.37 2063.14 1202.92 2017.78 1191.94 1974.23 1175.66 1947.51 1146.35 1928.83 1110.63 1920 1071.97 1996.76 1039.07 2095.08 1021.05 2200 1021.05 2304.92 1021.05 2403.27 1039.07 2480 1071.97 2471.17 1110.64 2452.49 1146.36 2425.77 1175.67 2382.21 1191.94 2336.86 1202.92 2290.68 1208.37ZM2521.83 1114.37 2519.59 1117.82C2514.61 1125.54 2508.15 1132.2 2500.58 1137.4 2486.47 1146.97 2471.64 1155.41 2456.21 1162.67 2474.32 1137.38 2487.36 1108.81 2494.6 1078.55 2496.44 1079.42 2498.35 1080.25 2500.17 1081.14 2511.01 1086.23 2520.73 1093.43 2528.75 1102.33 2526.65 1106.43 2524.37 1110.47 2521.83 1114.36ZM2535.59 1086.8C2535.59 1086.86 2535.51 1086.87 2535.46 1086.8 2527.17 1078.67 2517.57 1072 2507.07 1067.05 2504.06 1065.59 2500.94 1064.19 2497.85 1062.77 2502.41 1035.4 2502.92 1007.52 2499.37 980.008 2507.17 983.29 2514.77 986.659 2521.99 990.192 2534.23 996.149 2542.5 1008.05 2543.8 1021.6L2544 1023.69C2546.03 1045.1 2543.15 1066.68 2535.59 1086.8Z" stroke="#E97132" stroke-width="7.83333" fill="#404040"/></g></g></g></g></svg>